<svg width="48" height="47" viewBox="0 0 48 47" fill="none" xmlns="http://www.w3.org/2000/svg">
<path d="M12.8002 18.418H11.2002V19.9119H12.8002V18.418Z" fill="white"/>
<path d="M20.8002 18.418H19.2002V19.9119H20.8002V18.418Z" fill="white"/>
<path d="M47.3136 26.6425L44.188 26.2257C44.0394 25.8176 43.8638 25.4184 43.6624 25.0305L45.5536 22.6759C45.6691 22.532 45.7252 22.3541 45.7115 22.1748C45.6978 21.9954 45.6154 21.8267 45.4792 21.6996L42.0848 18.53C41.9544 18.4091 41.783 18.3343 41.6 18.3186V11.1278C42.3485 10.5683 42.9528 9.85878 43.3682 9.05183C43.7836 8.24488 43.9995 7.36108 44 6.46574C44.0073 5.33363 43.6665 4.22334 43.018 3.26676C42.3695 2.31017 41.4406 1.5475 40.3416 1.06933C40.2197 1.01557 40.0852 0.991457 39.9506 0.999227C39.8161 1.007 39.6858 1.0464 39.5719 1.11377C39.458 1.18114 39.3642 1.2743 39.2992 1.38459C39.2341 1.49489 39.2 1.61873 39.2 1.74463V5.92789L37.6 6.42615L36 5.92789V1.74463C35.9994 1.61898 35.9649 1.49551 35.8997 1.38562C35.8345 1.27573 35.7406 1.18298 35.6268 1.11596C35.513 1.04893 35.3829 1.00979 35.2486 1.00217C35.1143 0.994538 34.9801 1.01867 34.8584 1.07232C33.7599 1.55028 32.8313 2.31249 32.1829 3.26849C31.5344 4.22448 31.1933 5.33413 31.2 6.46574C31.2005 7.36108 31.4164 8.24488 31.8318 9.05183C32.2472 9.85878 32.8515 10.5683 33.6 11.1278V16.1769H31.2C31.0075 16.1769 30.8214 16.2417 30.676 16.3594C30.5305 16.4771 30.4354 16.6399 30.408 16.8178L29.8904 20.201L31.4744 20.4125L31.8936 17.6709H35.3064L35.7256 20.4125C35.7474 20.5545 35.8126 20.6876 35.9133 20.796C36.0141 20.9044 36.1461 20.9834 36.2936 21.0235C36.9604 21.2034 37.6042 21.4506 38.2136 21.7608C38.3484 21.8298 38.5017 21.8611 38.6551 21.8509C38.8084 21.8407 38.9554 21.7895 39.0784 21.7033L41.4472 20.0449L43.86 22.2979L42.08 24.5098C41.9877 24.6247 41.9328 24.7619 41.9219 24.9051C41.911 25.0483 41.9445 25.1914 42.0184 25.3173C42.3506 25.8864 42.6153 26.4875 42.808 27.1102C42.851 27.2479 42.9356 27.3712 43.0516 27.4652C43.1677 27.5593 43.3103 27.6202 43.4624 27.6405L46.3984 28.032V31.2187L43.4624 31.6102C43.3103 31.6305 43.1677 31.6914 43.0516 31.7855C42.9356 31.8795 42.851 32.0028 42.808 32.1405C42.6153 32.7632 42.3506 33.3643 42.0184 33.9334C41.9445 34.0593 41.911 34.2024 41.9219 34.3456C41.9328 34.4888 41.9877 34.6261 42.08 34.7409L43.856 36.9528L41.4432 39.2058L39.076 37.5414C38.953 37.4553 38.806 37.404 38.6527 37.3938C38.4993 37.3836 38.346 37.4149 38.2112 37.4839C37.6018 37.7941 36.958 38.0413 36.2912 38.2212C36.1437 38.2614 36.0117 38.3404 35.9109 38.4487C35.8102 38.5571 35.745 38.6902 35.7232 38.8323L35.3064 41.5753H32V38.4162C31.9994 37.627 31.8782 36.8419 31.64 36.0848C33.1638 36.5013 34.7916 36.4418 36.2758 35.9153C37.7601 35.3888 39.0196 34.4241 39.8628 33.1679C40.7061 31.9117 41.0869 30.4327 40.9475 28.9559C40.808 27.479 40.1559 26.0851 39.0902 24.9861C38.0246 23.887 36.6037 23.143 35.0437 22.8672C33.4837 22.5913 31.8699 22.7987 30.4476 23.4578C29.0254 24.1169 27.8726 25.1917 27.1646 26.5187C26.4565 27.8456 26.2318 29.3522 26.5248 30.8094C26.5056 30.8019 26.4872 30.7929 26.468 30.7862L20 28.3704V27.2222C21.069 26.7115 22.0159 26.0035 22.7832 25.141H24.8C25.4365 25.141 26.047 24.9049 26.4971 24.4847C26.9472 24.0644 27.2 23.4944 27.2 22.9V21.2685C27.6663 21.1146 28.0703 20.8299 28.3567 20.4533C28.6432 20.0768 28.798 19.6268 28.8 19.1649V16.9239C28.798 16.4621 28.6432 16.0121 28.3567 15.6355C28.0703 15.259 27.6663 14.9743 27.2 14.8203V13.9359C27.2 11.1622 26.02 8.50211 23.9196 6.54082C21.8192 4.57953 18.9705 3.47769 16 3.47769C13.0296 3.47769 10.1808 4.57953 8.08044 6.54082C5.98004 8.50211 4.80004 11.1622 4.80004 13.9359V14.8203C4.33371 14.9743 3.92971 15.259 3.64331 15.6355C3.35691 16.0121 3.20209 16.4621 3.20004 16.9239V19.1649C3.20004 19.7593 3.4529 20.3293 3.90299 20.7496C4.35307 21.1699 4.96352 21.406 5.60004 21.406H7.20004C7.25124 21.406 7.30084 21.3985 7.35124 21.3955C7.59721 22.6341 8.14421 23.8034 8.95015 24.8136C9.75609 25.8237 10.7995 26.6477 12 27.2222V28.3704L5.53204 30.7862C3.8957 31.3918 2.49269 32.4436 1.50592 33.8046C0.519148 35.1656 -0.00561398 36.7726 4.52962e-05 38.4162V45.3104C4.52962e-05 45.5085 0.0843307 45.6985 0.23436 45.8386C0.384389 45.9787 0.587872 46.0574 0.800045 46.0574H31.2C31.4122 46.0574 31.6157 45.9787 31.7657 45.8386C31.9157 45.6985 32 45.5085 32 45.3104V43.0693H36C36.1925 43.0693 36.3786 43.0046 36.5241 42.8868C36.6695 42.7691 36.7647 42.6063 36.792 42.4284L37.2384 39.5098C37.6755 39.371 38.103 39.2071 38.5184 39.019L41.04 40.785C41.1941 40.8928 41.3846 40.9452 41.5767 40.9324C41.7688 40.9197 41.9495 40.8426 42.0856 40.7155L45.48 37.5459C45.6162 37.4188 45.6986 37.2501 45.7123 37.0707C45.726 36.8914 45.6699 36.7134 45.5544 36.5696L43.6632 34.215C43.8646 33.8271 44.0402 33.4279 44.1888 33.0198L47.3144 32.6029C47.5047 32.5773 47.6787 32.4885 47.8046 32.3528C47.9305 32.2171 47.9999 32.0437 48 31.8641V27.3821C48 27.2023 47.9306 27.0286 47.8046 26.8927C47.6785 26.7569 47.5042 26.6681 47.3136 26.6425ZM38.5136 20.2272C38.476 20.21 38.4336 20.1988 38.396 20.1824V10.9478H36.8V16.8716L36.792 16.8178C36.7647 16.6399 36.6695 16.4771 36.5241 16.3594C36.3786 16.2417 36.1925 16.1769 36 16.1769H35.2V10.7536C35.2 10.6331 35.1688 10.5144 35.109 10.4076C35.0493 10.3008 34.9627 10.2091 34.8568 10.1403C34.2621 9.75369 33.7689 9.24638 33.4141 8.65641C33.0593 8.06644 32.8522 7.40911 32.8082 6.73373C32.7643 6.05836 32.8847 5.38245 33.1603 4.7567C33.436 4.13096 33.8598 3.57162 34.4 3.12062V6.46574C34.4 6.62259 34.4528 6.77547 34.551 6.90271C34.6492 7.02995 34.7878 7.12509 34.9472 7.17466L37.3472 7.92167C37.5113 7.97271 37.6887 7.97271 37.8528 7.92167L40.2528 7.17466C40.4122 7.12509 40.5508 7.02995 40.649 6.90271C40.7472 6.77547 40.8 6.62259 40.8 6.46574V3.12062C41.3406 3.57161 41.7648 4.13108 42.0408 4.75705C42.3167 5.38302 42.4373 6.05922 42.3933 6.73491C42.3494 7.41059 42.1421 8.0682 41.787 8.65838C41.4319 9.24856 40.9383 9.75597 40.3432 10.1425C40.2376 10.2111 40.1513 10.3025 40.0915 10.4088C40.0318 10.5152 40.0004 10.6335 40 10.7536V19.1896L38.5136 20.2272ZM28 29.6231C27.9912 28.4551 28.3985 27.3175 29.1578 26.3892C29.9172 25.461 30.9854 24.7948 32.1946 24.4955C33.4037 24.1961 34.6851 24.2806 35.8372 24.7357C36.9893 25.1908 37.9466 25.9906 38.5587 27.0093C39.1707 28.028 39.4027 29.2078 39.2181 30.363C39.0336 31.5183 38.4429 32.5835 37.5392 33.3911C36.6354 34.1986 35.4697 34.7027 34.2255 34.824C32.9814 34.9453 31.7294 34.6769 30.6664 34.0611C30.1134 33.2339 29.4059 32.5059 28.5776 31.912C28.197 31.2014 27.9992 30.4176 28 29.6231ZM24.8 23.647H23.8288C24.2187 22.938 24.495 22.1794 24.6488 21.3955C24.6992 21.3955 24.7488 21.406 24.8 21.406H25.6V22.9C25.6 23.0981 25.5157 23.2881 25.3657 23.4282C25.2157 23.5683 25.0122 23.647 24.8 23.647ZM23.2 15.4299C22.8276 15.429 22.4604 15.3476 22.1273 15.1921C21.7942 15.0366 21.5042 14.8112 21.28 14.5335L19.84 12.7406C19.7757 12.6606 19.6949 12.5934 19.6023 12.5431C19.5096 12.4928 19.4071 12.4604 19.3008 12.4478C19.1945 12.4356 19.0866 12.4433 18.9835 12.4703C18.8804 12.4974 18.784 12.5433 18.7 12.6054L16.0152 14.6082C15.3068 15.1375 14.4273 15.4271 13.52 15.4299H8.80004V14.6829C8.80004 12.8998 9.55861 11.1897 10.9089 9.92892C12.2591 8.66809 14.0905 7.95977 16 7.95977C17.9096 7.95977 19.7409 8.66809 21.0912 9.92892C22.4415 11.1897 23.2 12.8998 23.2 14.6829V15.4299ZM27.2 19.1649C27.2 19.3631 27.1157 19.5531 26.9657 19.6932C26.8157 19.8333 26.6122 19.912 26.4 19.912H24.8V16.1769H26.4C26.6122 16.1769 26.8157 16.2556 26.9657 16.3957C27.1157 16.5358 27.2 16.7258 27.2 16.9239V19.1649ZM16 4.97172C18.5453 4.97429 20.9855 5.91955 22.7852 7.60009C24.585 9.28064 25.5973 11.5592 25.6 13.9359V14.6829H24.8C24.8 12.5036 23.8729 10.4135 22.2226 8.87248C20.5722 7.33147 18.3339 6.46574 16 6.46574C13.6661 6.46574 11.4278 7.33147 9.7775 8.87248C8.12718 10.4135 7.20004 12.5036 7.20004 14.6829H6.40004V13.9359C6.40279 11.5592 7.4151 9.28064 9.21485 7.60009C11.0146 5.91955 13.4548 4.97429 16 4.97172ZM5.60004 19.912C5.38787 19.912 5.18438 19.8333 5.03436 19.6932C4.88433 19.5531 4.80004 19.3631 4.80004 19.1649V16.9239C4.80004 16.7258 4.88433 16.5358 5.03436 16.3957C5.18438 16.2556 5.38787 16.1769 5.60004 16.1769H7.20004V19.912H5.60004ZM8.80004 19.912V16.9239H13.52C14.7911 16.9223 16.0241 16.5184 17.0176 15.778L19.0584 14.2533L20 15.4299C20.3737 15.8927 20.857 16.2684 21.4122 16.5276C21.9674 16.7868 22.5793 16.9225 23.2 16.9239V19.912C23.2013 21.2424 22.7774 22.5429 21.9824 23.647H16V25.141H20.5152C19.4587 25.9387 18.1819 26.4406 16.8326 26.5887C15.4832 26.7368 14.1166 26.5251 12.8908 25.9779C11.665 25.4308 10.6302 24.5707 9.90626 23.4972C9.1823 22.4236 8.79876 21.1806 8.80004 19.912ZM16 28.1291C16.8119 28.1272 17.6197 28.0201 18.4 27.8109V28.8761C18.4 29.4705 18.1472 30.0405 17.6971 30.4607C17.247 30.881 16.6365 31.1171 16 31.1171C15.3635 31.1171 14.7531 30.881 14.303 30.4607C13.8529 30.0405 13.6 29.4705 13.6 28.8761V27.8109C14.3804 28.0201 15.1881 28.1272 16 28.1291ZM30.4 44.5633H25.6V36.3462H24V44.5633H8.00004V36.3462H6.40004V44.5633H1.60004V38.4162C1.59539 37.0714 2.02475 35.7565 2.83216 34.643C3.63956 33.5294 4.78755 32.6688 6.12644 32.1734L12.1768 29.9137C12.4131 30.6905 12.9142 31.3741 13.6042 31.8608C14.2941 32.3476 15.1353 32.611 16 32.611C16.8648 32.611 17.7059 32.3476 18.3959 31.8608C19.0859 31.3741 19.587 30.6905 19.8232 29.9137L25.8736 32.1734C27.2125 32.6688 28.3605 33.5294 29.1679 34.643C29.9753 35.7565 30.4047 37.0714 30.4 38.4162V44.5633Z" fill="white"/>
<path d="M34.4 19.1648H32.8V20.6587H34.4V19.1648Z" fill="white"/>
<path d="M34.4 38.5872H32.8V40.0813H34.4V38.5872Z" fill="white"/>
<path d="M40.9532 35.4331L39.8218 36.4897L40.9532 37.5464L42.0846 36.4897L40.9532 35.4331Z" fill="white"/>
<path d="M44.8002 28.876H43.2002V30.3701H44.8002V28.876Z" fill="white"/>
<path d="M40.9536 21.7004L39.8223 22.7566L40.9536 23.8127L42.085 22.7566L40.9536 21.7004Z" fill="white"/>
</svg>
