<svg width="48" height="46" viewBox="0 0 48 46" fill="none" xmlns="http://www.w3.org/2000/svg">
<path d="M38.3847 23.7692L40.5726 21.7154C41.2162 21.1112 40.2183 20.1789 39.5749 20.783L37.4456 22.782C36.765 23.2881 35.9806 23.2767 35.3207 22.7694L38.2896 19.9822C38.9331 19.3781 37.9352 18.4456 37.2919 19.0499L32.6021 23.4524C32.0207 23.9983 31.0522 23.9983 30.4707 23.4524C29.8819 22.8997 29.8819 22.0004 30.4705 21.4476C30.4706 21.4475 30.4707 21.4475 30.4707 21.4474L31.2323 20.7324C31.8759 20.1283 30.8779 19.1958 30.2346 19.8001L29.473 20.5151C28.8916 21.0609 27.9231 21.0609 27.3416 20.5151C26.7527 19.9622 26.7527 19.0628 27.3417 18.5099C27.3419 18.5097 27.342 18.5097 27.3421 18.5095L28.1033 17.7949C28.7468 17.1909 27.7489 16.2584 27.1056 16.8627L26.3445 17.5771C25.7764 18.1093 24.7809 18.111 24.2126 17.5776C23.539 16.9452 23.7588 16.1206 24.2853 15.5042L24.9742 14.8574C25.6178 14.2534 24.6199 13.3211 23.9764 13.9252L23.2881 14.5715C22.6932 15.0858 21.7517 15.1309 21.1561 14.572C20.5672 14.0192 20.5672 13.1197 21.1561 12.5668L28.4556 5.71439C29.9742 4.28873 32.3101 3.88763 34.2681 4.71622C34.5356 4.82939 34.8498 4.77554 35.057 4.58088L38.6072 1.24811C39.2507 0.644088 38.2529 -0.288345 37.6094 0.315853L34.3896 3.33861C32.0014 2.52647 29.2712 3.0798 27.4578 4.78214L20.1583 11.6347C18.2811 13.3955 19.7226 16.4353 22.3767 16.3028C22.175 17.9521 23.7001 19.4455 25.4998 19.3045C25.4378 20.0728 25.7192 20.8611 26.3438 21.4474C26.9434 22.0103 27.7837 22.3008 28.6288 22.2419C28.5669 23.0103 28.8482 23.7985 29.4727 24.3849C30.5878 25.4317 32.4819 25.4341 33.5996 24.3849L34.325 23.7039C35.3976 24.7076 37.2827 24.803 38.3847 23.7692Z" fill="white"/>
<path d="M47.7929 8.93912C47.5174 8.68172 47.0712 8.68208 46.7964 8.94018L43.2462 12.273C43.0397 12.467 42.9825 12.7601 43.1025 13.0099C43.9857 14.8495 43.5583 17.0438 42.0389 18.4703C41.3955 19.0743 42.3931 20.007 43.0366 19.4026C44.8498 17.7004 45.4386 15.1376 44.573 12.8966L47.7942 9.87263C48.069 9.61452 48.0685 9.19661 47.7929 8.93912Z" fill="white"/>
<path d="M5.69875 25.2089L4.96542 25.8973C3.15224 27.5995 2.56342 30.1623 3.42904 32.4033L0.207831 35.4273C-0.435584 36.0314 0.561953 36.9639 1.20556 36.3597L4.75571 33.0269C4.96222 32.833 5.01944 32.5398 4.89946 32.29C4.01627 30.4504 4.44358 28.2561 5.96305 26.8296L6.69638 26.1413C7.33998 25.5372 6.34207 24.6047 5.69875 25.2089Z" fill="white"/>
<path d="M25.8516 31.6587C25.8519 31.6584 25.8522 31.658 25.8525 31.6578C26.9881 30.5908 26.9878 28.8555 25.8516 27.789C25.252 27.2261 24.4118 26.9356 23.5666 26.9945C23.6285 26.2262 23.3472 25.4379 22.7227 24.8516C22.1234 24.2889 21.2825 23.9977 20.4376 24.0571C20.4995 23.2888 20.2182 22.5006 19.5937 21.9142C18.9777 21.336 18.1064 21.0455 17.2403 21.1252C17.2823 20.3769 16.9995 19.6154 16.392 19.045C15.2769 17.9982 13.3829 17.9959 12.2653 19.045L8.22447 22.8382C7.58096 23.4423 8.57859 24.3745 9.22219 23.7705L13.2629 19.9774C13.8442 19.4315 14.8129 19.4315 15.3942 19.9774C15.983 20.5301 15.9831 21.4294 15.3945 21.9822C15.3944 21.9823 15.3943 21.9824 15.3942 21.9825L14.7052 22.6292C14.0619 23.2332 15.0592 24.1658 15.7029 23.5615L16.3919 22.9148C16.9904 22.3543 17.9593 22.2491 18.5959 22.8467C19.1848 23.3995 19.1848 24.2989 18.5959 24.8518L17.8343 25.5667C17.1909 26.1707 18.1886 27.1034 18.8321 26.499L19.5931 25.7845C20.1613 25.2524 21.1568 25.2507 21.725 25.7841C22.3139 26.3369 22.3139 27.2363 21.725 27.7892C21.7248 27.7894 21.7247 27.7895 21.7245 27.7897L20.9634 28.5042C20.32 29.1081 21.3176 30.0408 21.9611 29.4364L22.7226 28.7215C23.304 28.1757 24.2724 28.1756 24.8539 28.7215C25.4428 29.2743 25.4428 30.1737 24.8539 30.7266L23.6297 31.8759C23.6297 31.8759 23.6297 31.8759 23.6296 31.876L20.1642 35.1292C19.5208 35.7332 20.5183 36.6657 21.1619 36.0615L24.1285 33.2766C24.6935 33.894 24.6571 34.6562 24.1396 35.2735L19.5463 39.5854C18.0277 41.011 15.6917 41.4121 13.7339 40.5836C13.4665 40.4705 13.1522 40.5243 12.9449 40.7189L9.39479 44.0516C8.75138 44.6556 9.74891 45.5882 10.3925 44.984L13.6124 41.9612C16.0006 42.7734 18.7308 42.22 20.5441 40.5177L25.1958 36.1509C26.4378 34.9859 25.915 33.4171 25.1714 32.2976L25.8516 31.6587Z" fill="white"/>
<path d="M8.93479 9.49832C9.57482 10.1078 10.5776 9.18013 9.93928 8.57251L5.47231 4.32067C4.83332 3.71225 3.82873 4.63816 4.46782 5.24648L8.93479 9.49832Z" fill="white"/>
<path d="M13.0404 13.343C13.6707 13.9662 14.6876 13.0523 14.0635 12.4352L12.7531 11.1397C12.1265 10.5201 11.1034 11.428 11.73 12.0475L13.0404 13.343Z" fill="white"/>
<path d="M6.91385 16.8577L1.86557 15.5498C0.987359 15.3223 0.611628 16.5944 1.48974 16.822L6.53802 18.1299C7.38513 18.3491 7.78295 17.0829 6.91385 16.8577Z" fill="white"/>
<path d="M18.0883 7.01425C18.313 7.82584 19.6821 7.51196 19.4525 6.68295L18.1378 1.93444C17.909 1.10843 16.5449 1.43973 16.7735 2.26575L18.0883 7.01425Z" fill="white"/>
<path d="M37.8649 34.776C37.226 34.1675 36.2213 35.0936 36.8604 35.7019L41.3275 39.9541C41.9675 40.5636 42.9703 39.6359 42.3319 39.0282L37.8649 34.776Z" fill="white"/>
<path d="M33.7592 30.9312C33.1326 30.3116 32.1095 31.2195 32.7361 31.839L34.0465 33.1345C34.6768 33.7577 35.6937 32.8438 35.0696 32.2267L33.7592 30.9312Z" fill="white"/>
<path d="M45.3101 27.4526L40.2618 26.1448C39.3836 25.9173 39.0079 27.1893 39.886 27.4168L44.9343 28.7246C45.7814 28.9437 46.1793 27.6777 45.3101 27.4526Z" fill="white"/>
<path d="M28.7115 37.2606C28.4827 36.4346 27.1186 36.7659 27.3473 37.5919L28.662 42.3404C28.8868 43.152 30.2558 42.8381 30.0263 42.0091L28.7115 37.2606Z" fill="white"/>
</svg>
