<svg width="75" height="46" viewBox="0 0 75 46" fill="none" xmlns="http://www.w3.org/2000/svg">
<path d="M50.4221 25.5045L44.038 22.8405C43.587 22.6523 43.2958 22.2313 43.2958 21.7681V20.1222C45.4403 18.5179 46.8187 16.0474 46.8187 13.2789V10.9619C47.5252 10.5953 47.9929 9.88706 47.9929 9.09378V8.86891C47.9929 4.04486 43.8127 0.120117 38.6746 0.120117H36.3262C31.1881 0.120117 27.0078 4.04486 27.0078 8.86891V10.9092C27.0078 11.6065 27.3275 12.2382 27.8846 12.6424C27.979 12.7109 28.0785 12.7711 28.1821 12.8232V13.2787C28.1821 16.0472 29.5603 18.5177 31.7047 20.1219V21.768C31.7047 22.2312 31.4134 22.6522 30.9625 22.8403L24.5784 25.5043C22.4876 26.3767 21.1366 28.3285 21.1366 30.4766V44.1478C21.1366 44.7175 21.6285 45.1793 22.2352 45.1793C22.842 45.1793 23.3339 44.7175 23.3339 44.1478V30.4768C23.3339 30.3573 23.3429 30.2391 23.3561 30.1219L26.2978 32.8839C26.7556 33.3138 27.0078 33.8852 27.0078 34.4932V44.148C27.0078 44.7176 27.4997 45.1794 28.1065 45.1794C28.7132 45.1794 29.2051 44.7176 29.2051 44.148V34.4932C29.2051 33.3343 28.7245 32.2447 27.8516 31.4252L24.3446 28.1324C24.6606 27.8246 25.0397 27.5695 25.4709 27.3895L31.7474 24.7705L36.4019 29.1405V44.1478C36.4019 44.7175 36.8938 45.1793 37.5005 45.1793C38.1073 45.1793 38.5992 44.7175 38.5992 44.1478V29.1407L43.2537 24.7706L49.53 27.3895C49.9613 27.5695 50.3404 27.8246 50.6563 28.1325L47.1493 31.4252C46.2764 32.2447 45.7958 33.3343 45.7958 34.4932V44.148C45.7958 44.7176 46.2877 45.1794 46.8945 45.1794C47.5012 45.1794 47.9931 44.7176 47.9931 44.148V34.4932C47.9931 33.8854 48.2452 33.3138 48.7031 32.8839L51.6447 30.1221C51.6578 30.2393 51.6669 30.3571 51.6669 30.4766V44.1478C51.6669 44.7175 52.1588 45.1793 52.7656 45.1793C53.3723 45.1793 53.8642 44.7175 53.8642 44.1478V30.4768C53.8638 28.3287 52.5129 26.3768 50.4221 25.5045ZM37.5001 27.2547L33.416 23.42C33.7265 22.9295 33.9019 22.3619 33.9019 21.7681V21.3484C35.0097 21.7855 36.2254 22.0277 37.5002 22.0277C38.7751 22.0277 39.9906 21.7856 41.0984 21.3485V21.7681C41.0984 22.362 41.2737 22.9295 41.5844 23.4202L37.5001 27.2547ZM37.5002 19.9645C33.5737 19.9647 30.3792 16.9654 30.3792 13.2789V12.815C31.0647 12.5598 31.7339 12.1539 32.3745 11.5989C32.8202 11.2126 32.8482 10.56 32.4366 10.1414C32.0251 9.72285 31.3302 9.69658 30.8841 10.0829C30.3347 10.5592 29.7856 10.8668 29.2527 10.9975C29.2398 11.0007 29.2303 11.002 29.2236 11.0026C29.2157 10.9881 29.205 10.9579 29.205 10.9093V8.86905C29.205 5.18252 32.3995 2.18323 36.326 2.18323H38.6745C42.6011 2.18323 45.7955 5.18252 45.7955 8.86905V9.09391C45.7955 9.12733 45.7741 9.15635 45.746 9.16158C39.1672 10.3815 35.8675 8.08237 34.7542 7.03713C34.3252 6.6343 33.6295 6.6343 33.2006 7.03713C32.7716 7.43996 32.7716 8.0931 33.2006 8.49579C36.6123 11.6989 41.5905 11.7567 44.6213 11.4148V13.2787C44.6213 16.9653 41.4268 19.9645 37.5002 19.9645Z" fill="white"/>
<path d="M19.8109 19.8942V17.6889C19.8109 14.9979 18.3214 12.6291 16.0771 11.2659C16.2157 10.8485 16.2881 10.4113 16.2881 9.97162C16.2881 7.57914 14.215 5.63281 11.6668 5.63281C9.11852 5.63281 7.04547 7.57928 7.04547 9.97162C7.04547 10.4168 7.11725 10.8498 7.25612 11.2662C5.01197 12.6293 3.52266 14.9981 3.52266 17.6889V19.8938C3.52266 22.4995 4.9191 24.8037 7.04532 26.1848V28.4531C7.04532 28.9005 6.78063 29.3026 6.3545 29.5027L2.55455 31.2865C0.97881 32.0264 0 33.5134 0 35.1675V44.1481C0 44.7177 0.491895 45.1796 1.09863 45.1796C1.70537 45.1796 2.19727 44.7177 2.19727 44.1481V35.6136L3.98702 37.294C4.44478 37.7239 4.69703 38.2953 4.69703 38.9033V44.1481C4.69703 44.7177 5.18892 45.1796 5.79566 45.1796C6.4024 45.1796 6.8943 44.7177 6.8943 44.1481V38.9033C6.8943 37.7444 6.41354 36.6549 5.54078 35.8353L3.04981 33.4966C3.0378 33.4853 3.02491 33.4756 3.0126 33.465C3.1689 33.3354 3.34424 33.2227 3.53731 33.1319L7.33727 31.3481C7.53195 31.2567 7.71315 31.1487 7.88204 31.0288L10.5681 33.5508V44.1482C10.5681 44.7179 11.06 45.1797 11.6668 45.1797C12.2735 45.1797 12.7654 44.7179 12.7654 44.1482V33.5507L15.4516 31.0286C15.6207 31.1487 15.8017 31.2567 15.9964 31.348L17.0442 31.8399C17.202 31.9141 17.3696 31.9491 17.5348 31.9491C17.9378 31.9491 18.3258 31.7401 18.5183 31.3788C18.7897 30.8692 18.5697 30.2497 18.027 29.995L16.9792 29.503C16.5529 29.3029 16.2882 28.9008 16.2882 28.4535V26.1852C18.4144 24.8041 19.8109 22.4998 19.8109 19.8942ZM11.6668 7.69577C13.0034 7.69577 14.0908 8.7168 14.0908 9.97162C14.0908 10.1098 14.0776 10.2453 14.0524 10.378C13.2974 10.1605 12.4966 10.0426 11.6668 10.0426C10.8381 10.0426 10.0383 10.16 9.28449 10.3771C9.25915 10.2443 9.24274 10.1096 9.24274 9.97162C9.24274 8.71666 10.3301 7.69577 11.6668 7.69577ZM11.6668 12.1057C14.9458 12.1057 17.6136 14.6104 17.6136 17.689V18.0628C13.0396 19.3776 10.3137 16.1108 10.1972 15.9677C10.0061 15.7285 9.71383 15.5789 9.39626 15.5577C9.07868 15.5368 8.76667 15.6459 8.54152 15.8572C7.49284 16.8418 6.46569 17.3167 5.72389 17.546C5.80519 14.5332 8.43883 12.1057 11.6668 12.1057ZM11.6668 31.6646L9.12804 29.281C9.20216 29.015 9.24274 28.7378 9.24274 28.4532V27.1941C10.0087 27.4189 10.823 27.54 11.6668 27.54C12.5105 27.54 13.3248 27.4189 14.0908 27.1941V28.4532C14.0908 28.7378 14.1314 29.0152 14.2055 29.281L11.6668 31.6646ZM11.6668 25.4771C8.38771 25.4771 5.71993 22.9724 5.71993 19.8938V19.68C6.59606 19.4911 7.89508 19.0519 9.25021 18.0287C9.72966 18.4534 10.4149 18.9744 11.2875 19.4212C12.3197 19.9497 13.7451 20.4387 15.4862 20.4387C16.1479 20.4387 16.8558 20.3664 17.6042 20.2006C17.4339 23.1371 14.8361 25.4771 11.6668 25.4771Z" fill="white"/>
<path d="M72.4456 29.0816L66.2972 26.1953C65.8711 25.9952 65.6064 25.5931 65.6064 25.1458V23.684C67.0456 22.4844 67.9548 20.7361 67.9548 18.7914V17.6173C67.9801 17.6173 68.0051 17.618 68.0304 17.618C68.6371 17.618 69.129 17.1562 69.129 16.5865V14.3817C69.129 10.7735 66.0023 7.83789 62.1591 7.83789H59.8107C55.9675 7.83789 52.8408 10.7735 52.8408 14.3817V16.5865C52.8408 17.1562 53.3327 17.618 53.9395 17.618C53.9485 17.618 53.9749 17.6177 54.015 17.6162V18.7914C54.015 20.7362 54.9244 22.4845 56.3636 23.6842V25.146C56.3636 25.5933 56.0989 25.9955 55.6727 26.1954C55.1299 26.4501 54.9099 27.0697 55.1814 27.5793C55.3738 27.9407 55.7619 28.1497 56.1648 28.1497C56.3299 28.1497 56.4975 28.1147 56.6553 28.0407C56.85 27.9492 57.0312 27.8413 57.2001 27.7213L59.8863 30.2433V44.148C59.8863 44.7176 60.3782 45.1794 60.9849 45.1794C61.5917 45.1794 62.0836 44.7176 62.0836 44.148V30.2431L64.7696 27.7211C64.9387 27.8411 65.1197 27.9491 65.3144 28.0404L71.2639 30.8333L69.4593 32.5276C68.5866 33.3471 68.1058 34.4366 68.1058 35.5956V44.1477C68.1058 44.7173 68.5977 45.1792 69.2045 45.1792C69.8112 45.1792 70.3031 44.7173 70.3031 44.1477V35.5956C70.3031 34.9877 70.5552 34.4161 71.0131 33.9862L72.7224 32.3814C72.7743 32.568 72.8027 32.7626 72.8027 32.9623V44.1477C72.8027 44.7173 73.2946 45.1792 73.9014 45.1792C74.5081 45.1792 75 44.7173 75 44.1477V32.9623C75.0001 31.3084 74.0213 29.8214 72.4456 29.0816ZM55.0379 15.3429V14.3815H55.0381C55.0381 11.9108 57.1791 9.90069 59.8107 9.90069H62.1591C64.7907 9.90069 66.9318 11.9108 66.9318 14.3815V15.5273C62.1559 15.2854 59.2738 13.5405 59.2459 13.5234C59.06 13.407 58.8479 13.3501 58.6368 13.3501C58.3532 13.3501 58.0719 13.4529 57.8595 13.6522C56.8084 14.6391 55.7784 15.1142 55.0379 15.3429ZM60.9849 28.3571L58.4462 25.9736C58.5203 25.7076 58.5609 25.4304 58.5609 25.1458V24.9262C59.3162 25.1901 60.1328 25.3351 60.9849 25.3351C61.837 25.3351 62.6537 25.1901 63.409 24.9262V25.1458C63.409 25.4304 63.4494 25.7076 63.5236 25.9736L60.9849 28.3571ZM60.9849 23.2723C58.3533 23.2723 56.2123 21.2623 56.2123 18.7914V17.1285C56.9818 16.8399 57.8783 16.3809 58.7906 15.6512C59.9443 16.2148 62.3581 17.1889 65.7575 17.5107V18.7914C65.7575 21.2621 63.6165 23.2723 60.9849 23.2723Z" fill="white"/>
</svg>
